<svg width="83" height="80" viewBox="0 0 83 80" fill="none" xmlns="http://www.w3.org/2000/svg">
<path d="M56.6856 6.16896C52.8149 2.45919 47.4085 0.41626 41.4412 0.41626C35.4421 0.41626 30.0178 2.44683 26.165 6.13365C22.2703 9.86107 20.3727 14.9269 20.8183 20.3971C21.7014 31.1892 30.9527 39.9683 41.4412 39.9683C51.9297 39.9683 61.1651 31.1909 62.0622 20.4006C62.5137 14.9799 60.6042 9.92464 56.6856 6.16896ZM76.4493 79.5203H6.43314C5.51669 79.5309 4.60911 79.36 3.77643 79.02C2.94375 78.6801 2.20691 78.1796 1.61953 77.5551C0.326615 76.1831 -0.194528 74.3097 0.191356 72.4151C1.87015 64.148 7.10943 57.2034 15.3443 52.3283C22.6602 48.0005 31.9274 45.6186 41.4412 45.6186C50.9551 45.6186 60.2223 48.0023 67.5382 52.3283C75.773 57.2017 81.0123 64.1462 82.6911 72.4133C83.077 74.3079 82.5558 76.1814 81.2629 77.5533C80.6757 78.1782 79.939 78.679 79.1063 79.0192C78.2736 79.3595 77.3659 79.5307 76.4493 79.5203Z" fill="#FFFCFC"/>
</svg>
